<svg viewBox="0 0 32 32" xmlns="http://www.w3.org/2000/svg"><path d="m16 4c-7.178 0-12 4.4303594-12 8.568359 0 1.446.775 2.623532 2 3.144532v8.287109c0 2.206 1.794 4 4 4h12c2.206 0 4-1.794 4-4v-8.287109c1.225-.521 2-1.698532 2-3.144532 0-4.1379996-4.822-8.568359-12-8.568359zm0 2c6.438 0 10 3.8833594 10 6.568359 0 .768-.43325 1.294203-1.15625 1.408203l-.84375.134766v9.888672c0 1.103-.897 2-2 2h-12c-1.103 0-2-.897-2-2v-9.888672l-.84375-.132812c-.723-.115-1.15625-.642157-1.15625-1.410157 0-2.6849996 3.562-6.568359 10-6.568359z"/></svg>