<svg width="132" height="83" viewBox="0 0 132 83" fill="none" xmlns="http://www.w3.org/2000/svg">
<g clip-path="url(#clip0_4781_9044)">
<path d="M130.139 57.2588V51.889V45.8651C130.139 43.241 127.952 41.1059 125.265 41.1059H119.859L116.013 25.3794H118.935C119.483 25.3794 119.928 24.945 119.928 24.4094C119.928 20.5249 116.692 17.3645 112.713 17.3645H97.3736V16.4181C97.3736 14.1845 95.5125 12.3672 93.225 12.3672H58.9428C56.6553 12.3672 54.7942 14.1845 54.7942 16.4181V17.3645H51.5678C51.0192 17.3645 50.5743 17.7989 50.5743 18.3345V56.7233C48.5795 56.8657 47 58.4921 47 60.4757C47 62.5523 48.7301 64.242 50.8571 64.242H55.9025C57.1947 67.9543 60.7967 70.634 65.0299 70.634C69.263 70.634 72.865 67.9543 74.1573 64.242H90.3542C91.6465 67.9543 95.2485 70.634 99.4816 70.634C103.715 70.634 107.317 67.9543 108.609 64.242H128.143C130.27 64.242 132 62.5525 132 60.4757C132 59.1127 131.252 57.9202 130.139 57.2588ZM128.143 56.7093H124.782V54.2384C124.782 53.4777 125.416 52.859 126.195 52.859H128.152V56.7093H128.143ZM116.578 36.0432L117.816 41.1059H102.018V28.7154H114.786L116.578 36.0432ZM114.312 26.7753H101.024C100.476 26.7753 100.031 27.2097 100.031 27.7454V42.0759C100.031 42.6116 100.476 43.046 101.024 43.046H119.075H125.265C126.857 43.046 128.152 44.3107 128.152 45.8651V50.9189H126.195C124.32 50.9189 122.796 52.4081 122.796 54.2384V56.7093H107.939C106.3 53.7914 103.124 51.8084 99.4816 51.8084C98.543 51.8084 97.6362 51.9425 96.7777 52.1879V25.3794H113.97L114.312 26.7753ZM95.3869 16.4183V17.3645H83.2495V14.3075H93.2252C94.4172 14.3075 95.3869 15.2544 95.3869 16.4183ZM69.1492 17.3645V14.3075H81.2624V17.3645H69.1492ZM56.7811 16.4183C56.7811 15.2544 57.7508 14.3075 58.9428 14.3075H67.1625V17.3645H56.7813L56.7811 16.4183ZM112.713 19.3046C115.256 19.3046 117.381 21.0868 117.846 23.4393H114.754H95.7841C95.2355 23.4393 94.7907 23.8737 94.7907 24.4094V53.0022C93.2072 53.8675 91.8972 55.1549 91.024 56.7093H73.4871C71.8479 53.7914 68.6718 51.8084 65.0297 51.8084C61.3876 51.8084 58.2114 53.7914 56.5722 56.7093H52.5612V19.3046H112.713ZM50.8571 62.3019C49.8259 62.3019 48.9868 61.4826 48.9868 60.4757C48.9868 59.4687 49.8259 58.6494 50.8571 58.6494H55.759C55.5206 59.4676 55.3903 60.3296 55.3903 61.2212C55.3903 61.5867 55.4139 61.947 55.4558 62.3019H50.8571ZM65.0299 68.6939C60.8102 68.6939 57.3771 65.3418 57.3771 61.2212C57.3771 57.1007 60.8102 53.7485 65.0299 53.7485C69.2495 53.7485 72.6826 57.1008 72.6826 61.2212C72.6826 65.3416 69.2495 68.6939 65.0299 68.6939ZM74.6039 62.3019C74.6456 61.947 74.6695 61.5869 74.6695 61.2212C74.6695 60.3296 74.5391 59.4676 74.3007 58.6494H90.2108C89.9724 59.4676 89.842 60.3296 89.842 61.2212C89.842 61.5867 89.8657 61.947 89.9076 62.3019H74.6039ZM99.4816 68.6939C95.262 68.6939 91.8289 65.3418 91.8289 61.2212C91.8289 57.1007 95.2618 53.7485 99.4816 53.7485C103.702 53.7485 107.134 57.1008 107.134 61.2212C107.134 65.3416 103.701 68.6939 99.4816 68.6939ZM128.143 62.3019H109.056C109.097 61.947 109.121 61.5869 109.121 61.2212C109.121 60.3296 108.991 59.4676 108.752 58.6494H123.789H128.143C129.175 58.6494 130.014 59.4687 130.014 60.4757C130.013 61.4826 129.174 62.3019 128.143 62.3019Z" fill="black"/>
<path d="M99.4807 57.1953C97.2091 57.1953 95.3613 58.9998 95.3613 61.2179C95.3613 63.436 97.2093 65.2405 99.4807 65.2405C101.752 65.2405 103.6 63.436 103.6 61.2179C103.6 58.9998 101.752 57.1953 99.4807 57.1953ZM99.4807 63.3004C98.3048 63.3004 97.3482 62.3663 97.3482 61.2179C97.3482 60.0696 98.3048 59.1354 99.4807 59.1354C100.656 59.1354 101.613 60.0696 101.613 61.2179C101.613 62.3663 100.656 63.3004 99.4807 63.3004Z" fill="black"/>
<path d="M65.0297 57.1953C62.7581 57.1953 60.9102 58.9998 60.9102 61.2179C60.9102 63.436 62.7581 65.2405 65.0297 65.2405C67.3013 65.2405 69.149 63.436 69.149 61.2179C69.149 58.9998 67.3013 57.1953 65.0297 57.1953ZM65.0297 63.3004C63.8539 63.3004 62.897 62.3663 62.897 61.2179C62.897 60.0696 63.8537 59.1354 65.0297 59.1354C66.2057 59.1354 67.1622 60.0696 67.1622 61.2179C67.1622 62.3663 66.2057 63.3004 65.0297 63.3004Z" fill="black"/>
<path d="M59.9231 48.6469H61.4287H69.3946H71.3938H79.3597H81.2168H89.1827H90.8361C91.3847 48.6469 91.8295 48.2125 91.8295 47.6769V25.0245C91.8295 24.8019 91.7499 24.5996 91.6207 24.4358C91.4862 24.056 91.1204 23.7812 90.6857 23.7812H84.5332H78.3807H72.2283H66.0756H59.9231C59.3745 23.7812 58.9297 24.2156 58.9297 24.7513V25.0245V28.5659V47.6767C58.9297 48.2125 59.3745 48.6469 59.9231 48.6469ZM89.6921 25.9945V28.5659C89.6921 29.6873 88.7577 30.5997 87.6093 30.5997C86.4609 30.5997 85.5264 29.6873 85.5264 28.5659V25.9945H89.6921ZM83.5396 25.9945V28.5659C83.5396 29.6873 82.6052 30.5997 81.4568 30.5997C80.3084 30.5997 79.374 29.6873 79.374 28.5659V25.9945H83.5396ZM77.3869 25.9945V28.5659C77.3869 29.6873 76.4525 30.5997 75.3041 30.5997C74.1557 30.5997 73.2213 29.6873 73.2213 28.5659V25.9945H77.3869ZM71.2346 25.9945V28.5659C71.2346 29.6873 70.3002 30.5997 69.1518 30.5997C68.0034 30.5997 67.069 29.6873 67.069 28.5659V25.9945H71.2346ZM60.9165 25.9945H65.0822V28.5659C65.0822 29.6873 64.1478 30.5997 62.9994 30.5997C61.851 30.5997 60.9165 29.6873 60.9165 28.5659V25.9945ZM62.9994 32.54C64.228 32.54 65.3287 32.0034 66.0756 31.16C66.8224 32.0034 67.9232 32.54 69.1518 32.54C70.3805 32.54 71.4812 32.0034 72.2281 31.16C72.9749 32.0034 74.0756 32.54 75.3043 32.54C76.533 32.54 77.6337 32.0034 78.3805 31.16C79.1274 32.0034 80.2281 32.54 81.4568 32.54C82.6855 32.54 83.7862 32.0034 84.533 31.16C85.2799 32.0034 86.3806 32.54 87.6093 32.54C88.4338 32.54 89.2007 32.2977 89.8425 31.8845V41.8733C89.6637 41.41 89.4187 40.9711 89.1064 40.5779L89.0924 40.5604C88.9232 40.3474 88.83 40.0816 88.83 39.8119V37.5783C88.83 37.0426 88.3851 36.6082 87.8366 36.6082H82.5625C82.0139 36.6082 81.569 37.0426 81.569 37.5783V39.8055C81.569 40.074 81.4767 40.339 81.3084 40.5519L81.2851 40.5812C80.763 41.242 80.4212 42.0271 80.2877 42.8482C80.1526 42.0252 79.8085 41.2387 79.2836 40.5779L79.2697 40.5604C79.1004 40.3474 79.0072 40.0814 79.0072 39.8119V37.5783C79.0072 37.0426 78.5623 36.6082 78.0138 36.6082H72.7395C72.1909 36.6082 71.7461 37.0426 71.7461 37.5783V39.8055C71.7461 40.074 71.6537 40.339 71.4854 40.5519L71.4621 40.5814C70.7773 41.4482 70.4002 42.5286 70.4002 43.6234V46.707H70.3878V43.6296C70.3878 42.53 70.0078 41.4457 69.3185 40.5781L69.3046 40.5606C69.1353 40.3476 69.0422 40.0818 69.0422 39.8121V37.5785C69.0422 37.0428 68.5973 36.6084 68.0487 36.6084H62.7744C62.2259 36.6084 61.781 37.0428 61.781 37.5785V39.8057C61.781 40.0742 61.6886 40.3392 61.5217 40.5505L61.4971 40.5815C61.2668 40.8731 61.0745 41.1903 60.9165 41.5227V31.9741C61.5267 32.3309 62.2376 32.54 62.9994 32.54ZM62.4222 46.7068V43.6232C62.4222 42.9549 62.6524 42.2954 63.0695 41.7673L63.0939 41.7365C63.5284 41.1863 63.7679 40.5005 63.7679 39.8055V38.5483H67.0553V39.8119C67.0553 40.51 67.2967 41.1981 67.7338 41.7483L67.7477 41.7658C68.1691 42.2962 68.4012 42.9582 68.4012 43.6294V46.7068H62.4222ZM72.387 46.7068V43.6232C72.387 42.9549 72.6173 42.2954 73.0355 41.7658L73.0588 41.7365C73.4935 41.1863 73.7329 40.5005 73.7329 39.8055V38.5483H77.0203V39.8119C77.0203 40.51 77.2616 41.1981 77.6989 41.7483L77.7128 41.7658C78.1342 42.2962 78.3662 42.9582 78.3662 43.6294V46.7068H72.387ZM82.21 46.7068V43.6232C82.21 42.9549 82.4403 42.2952 82.8585 41.7658L82.8818 41.7363C83.3165 41.1861 83.5557 40.5003 83.5557 39.8053V38.5481H86.8429V39.8117C86.8429 40.5098 87.0843 41.1979 87.5214 41.7481L87.5354 41.7656C87.9568 42.296 88.1888 42.958 88.1888 43.6292V46.7066L82.21 46.7068Z" fill="black"/>
</g>
<path d="M14 41.5C13.1716 41.5 12.5 42.1716 12.5 43C12.5 43.8284 13.1716 44.5 14 44.5V41.5ZM14 43V44.5H35V43V41.5H14V43Z" fill="black"/>
<path d="M2 31.5C1.17157 31.5 0.5 32.1716 0.5 33C0.5 33.8284 1.17157 34.5 2 34.5V31.5ZM36 33V31.5H2V33V34.5H36V33Z" fill="black"/>
<path d="M2 50.5C1.17157 50.5 0.5 51.1716 0.5 52C0.5 52.8284 1.17157 53.5 2 53.5V50.5ZM36 52V50.5H2V52V53.5H36V52Z" fill="black"/>
<defs>
<clipPath id="clip0_4781_9044">
<rect width="85" height="83" fill="white" transform="translate(47)"/>
</clipPath>
</defs>
</svg>
