<?xml version="1.0" encoding="utf-8"?>
<svg viewBox="431.4000549316406 76.0999984741211 186.29971313476562 159.2000732421875" width="186.29971313476562" height="159.2000732421875" xmlns="http://www.w3.org/2000/svg"><g transform="matrix(1, 0, 0, 1, 5.684341886080802e-14, 0)">
		<path d="M 503.900012 141.899994 A 1.2 0.8 0 0 1 502.700012 142.699994 A 1.2 0.8 0 0 1 501.500012 141.899994 A 1.2 0.8 0 0 1 502.700012 141.099994 A 1.2 0.8 0 0 1 503.900012 141.899994 Z" class="st1" style="fill: rgb(35, 31, 32);"/>
		<path class="st1" d="M504.8,131.7c-0.2,0.1-1.6,0.7-1.2,3.8c0.3,2.6,0.8,3.8,1.1,4.3c0.2,0.4,0.6,0.4,0.7,0.4l0.2,0l0.2-0.2&#10;&#9;&#9;&#9;c0,0,0.2-0.3,0.3-0.6c0.3-1.6,0.5-5-0.6-7.5l-0.2-0.4L504.8,131.7z" style="fill: rgb(35, 31, 32);"/>
		<path class="st1" d="M510.1,116.9L510.1,116.9c-0.4,0.5-0.3,1.7-0.2,3.4c0,0.5,0.1,1.1,0.1,1.3c0,0.1-0.3,0.5-0.5,0.7&#10;&#9;&#9;&#9;c-0.4,0.5-0.8,1-0.8,1.6c0,0.3,0.1,0.5,0.2,0.7c0.2,0.3,0.4,0.9-0.2,3c-0.7,2.5-0.4,3.3,0,4.1c0.1,0.3,0.2,0.5,0.3,0.9&#10;&#9;&#9;&#9;c0.5,1.8,1.3,1.7,1.5,1.7l0.2,0l0.1-0.2c0.1-0.1,1.7-3.7,1.1-8c-0.6-4.1-0.2-10.5-0.2-10.8l-0.9,0&#10;&#9;&#9;&#9;C510.9,115.4,510.5,116.4,510.1,116.9z" style="fill: rgb(35, 31, 32);"/>
		<path class="st1" d="M509.5,136L509.5,136c-0.5,1.5-0.6,2.8-0.7,4c0,0,0,0.1,0,0.2c0,0.1-0.1,0.6-0.1,0.6&#10;&#9;&#9;&#9;c-0.2,1.1-0.4,2.1-0.4,3.3c0,0.1,0,0.3,0,0.4l0,0.1c0,1.2,0.8,2.2,1.7,2.2l0.4-0.1l0.2-0.1l0.2-0.2l0.2-0.4&#10;&#9;&#9;&#9;c0.4-0.5,0.5-0.9,0.5-1.6c0-0.3,0-0.7-0.1-1.1c0-0.7-0.3-3.4-0.5-4.3c0,0,0-0.2,0-0.2l0-0.5l0-0.2l-0.1-0.6&#10;&#9;&#9;&#9;c-0.1-0.6-0.1-1.1-0.4-1.6l0,0L510,135L509.5,136z" style="fill: rgb(35, 31, 32);"/>
		<path class="st1" d="M518.9,131.9L518.9,131.9L518.9,131.9c-0.2,0.5-3.4,10.5-2.7,15.1l0.9,0c0.7-2.5,1.9-6.6,2.4-7.3&#10;&#9;&#9;&#9;c0.8-1,0.4-2.3,0.2-2.9l-0.1-0.2c0-0.1,0.1-0.9,0.2-1.5c0.4-3.3,0.4-3.7-0.2-3.8C519.2,131.2,519,131.7,518.9,131.9z" style="fill: rgb(35, 31, 32);"/>
		<path class="st1" d="M527.1,107.3L527.1,107.3C527.1,107.3,527.1,107.3,527.1,107.3C527.1,107.4,527.1,107.4,527.1,107.3&#10;&#9;&#9;&#9;c-1,1.1-1.5,2.7-2,4.3c-0.5,1.5-0.6,3.2-0.8,4.8l-0.1,1.3c0,0.3-0.1,0.7-0.2,1l-0.2,1c-0.1,0.5-0.1,1.1-0.1,1.6l0,0.4l0,0.7&#10;&#9;&#9;&#9;c0,0.8-0.1,1.5-0.1,2.3c0,0.5,0,0.9,0.1,1.4l0.1,0.7c0.1,0.4,0.1,0.7,0.1,1.1c0,0.1,0,0.2,0,0.4c-0.1,0.6-0.2,1.2-0.3,1.8&#10;&#9;&#9;&#9;c-0.2,0.8-0.4,1.6-0.4,2.4c0,0,0,0.1,0,0.1c0,0.2-0.1,0.6-0.1,1c0,0.8,0.1,1.8,0.7,2.1l0.7,0.4l0-0.8c0-0.1,0-0.1,0-0.2&#10;&#9;&#9;&#9;c0-1,0.1-1.9,0.2-2.7c0.1-0.5,0.2-1,0.3-1.5l0.3-1.1c0,0,0.1-1,0.1-1c0-0.3,0-0.7,0.1-1c0.3-1.3,0.7-2.5,1.3-3.9&#10;&#9;&#9;&#9;c0.2-0.5,0.3-1.1,0.4-1.6l0.1-0.6l0.3-1c0.2-0.5,0.4-1,0.4-1.6l0.2-2.6l0.2-2.3c0,0,0.1-1.4,0.1-1.4c0.1-1.1,0.2-2.2,0.2-3.3&#10;&#9;&#9;&#9;c0,0,0,0,0-0.1c0-0.7-0.1-1.9-0.8-2.2c-0.1-0.1-0.2-0.1-0.3-0.1C527.5,107,527.2,107.1,527.1,107.3z" style="fill: rgb(35, 31, 32);"/>
		<path class="st1" d="M528.6,141.7C528.6,141.7,528.6,141.8,528.6,141.7c-0.6,0.2-1,0.9-1.2,1.4l-0.1,0.3c-0.2,0.4-0.4,0.8-0.4,1.2&#10;&#9;&#9;&#9;l-0.1,0.4l-0.2,0.6c-0.1,0.3-0.1,0.6-0.1,0.9c0,0.6,0.1,1.2,0.2,1.7l0.1,0.4c0.1,0.2,0.1,0.5,0.1,0.7c0,0,0,0.1,0,0.1l-0.1,0.5&#10;&#9;&#9;&#9;l-0.3,1.5l0.9-0.6c0.9-0.5,0.8-1.6,0.8-2.6c0-0.6,0-1.2,0.1-1.5l0.1-0.2c0.4-0.8,0.8-1.6,1.2-2.5c0,0,0.5-1.3,0-1.9&#10;&#9;&#9;&#9;C529.4,141.9,529.1,141.6,528.6,141.7z" style="fill: rgb(35, 31, 32);"/>
		<path class="st1" d="M530.6,132.4L530.6,132.4c-0.5,0.5-0.6,1.3-0.7,1.9l0,0.1c-0.1,0.5-0.1,1.1-0.1,1.6l0,0.6&#10;&#9;&#9;&#9;c0,0.5-0.1,1-0.2,1.6l-0.1,1.1l-0.2,1.7l0.8-1.5c0.6-1.3,0.9-1.7,1.2-2.3c0.3-0.5,0.6-1,0.8-1.5c0.4-1,0.6-1.7,0.6-2.7&#10;&#9;&#9;&#9;c0,0-0.1-0.4-0.2-0.5c-0.1-0.1-0.5-0.5-0.8-0.6C531.3,131.7,530.9,132,530.6,132.4z" style="fill: rgb(35, 31, 32);"/>
		<path class="st1" d="M549.3,98.4c-1.2,0-2.5,0.7-3.5,2l0,0c-1.6,1.9-6.7,12.7-6.8,14.2c0,1-1.5,4.5-2,5.7l0,0.1l0,0.1&#10;&#9;&#9;&#9;c-0.1,0.7-0.2,2.5-0.4,3.1c-0.7,2-0.6,2.6-0.2,2.8c0.3,0.2,0.6,0.1,1-0.2c1.1-1,6.9-10.6,7.3-11.7c0.1-0.4,1-2.1,1.9-3.7&#10;&#9;&#9;&#9;c2.4-4.6,4.2-7.9,4.2-9.1c0,0,0,0,0,0c0.1-0.4,0.1-1,0.1-1.5c0-0.6-0.1-1.1-0.3-1.3C550.3,98.6,549.8,98.4,549.3,98.4z" style="fill: rgb(35, 31, 32);"/>
		<path d="M564,204l-3.9,5.2l3.5,6.8C563.5,216,559.7,209.7,564,204z"/>
		<path class="st2" d="M457.2,96.4c0,0,0.4-3.7-1.9-3.3c-2.4,0.4-1.4,4.6-1.4,4.8c0,0.3,0.8,6.4,0.7,7c-0.1,0.6,1,5.1,4.6,5&#10;&#9;&#9;&#9;C459.1,110,454.9,105.6,457.2,96.4z" style="fill: rgb(93, 85, 111);"/>
		<path class="st3" d="M460.4,106c0,0,0-0.1,0-0.2c0.1-1.1,0.7-7.7,2.2-7C464.4,99.6,460.4,106,460.4,106z" style="fill: rgb(255, 255, 255); stroke: rgb(35, 31, 32);"/>
		<path class="st3" d="M465.2,92.7c0.3-1.7,1.9-3.4,2.8-4.8c1.1-1.6,2.2-3.4,3-5.1c0.6-1.2,4.7-6.7,5.3-3c0.5,3.2-3.4,5.9-5.5,7.7&#10;&#9;&#9;&#9;c-1.8,1.6-3,3.6-4.8,5.2c-0.3,0.3-0.5,0.5-0.9,0.6c-0.1-0.1,0-0.2,0-0.3L465.2,92.7z" style="fill: rgb(255, 255, 255); stroke: rgb(35, 31, 32);"/>
		<path class="st4" d="M535.2,207.6c-0.3,0-0.5,0.3-0.5,0.6c0,0.4,0.2,0.6,0.5,0.6c0.3,0,0.5-0.3,0.5-0.6&#10;&#9;&#9;&#9;C535.7,207.9,535.5,207.6,535.2,207.6z M617.1,199.8c-0.8-0.8-2.1-1.7-3.6-2.6c0.3-0.6,0.1-1.3,0-2.6c0.1-0.1,0.2-0.2,0.3-0.3&#10;&#9;&#9;&#9;c0.2-0.2,0.4-0.4,0.6-0.6c0.1-0.2,0.2-0.3,0.2-0.5c-0.6-0.6-1.2-0.9-2.3-1.4c-0.1-0.1-0.1-0.3-0.2-0.5c0.7-2.7,0.3-3.3-2.3-3.7&#10;&#9;&#9;&#9;c-0.1-0.1-0.2-0.2-0.4-0.3c-0.5-0.4-1-0.8-1.6-1.1c-0.1-0.1-0.3-0.2-0.4-0.3c-0.5-2.8-3.1-1.2-5.2-0.8c-0.2,0-0.4,0-0.5,0.1&#10;&#9;&#9;&#9;c-1,0.2-1.9,0.5-2.8,1c-0.3-0.4-0.6-0.7-0.8-0.8c0,0,0.1,0.1,0.1,0.1c-2.2-1.9-4.9-2.6-7.9-2.3c-1,0.1-1.9,0.3-2.9,0.7&#10;&#9;&#9;&#9;c2.3-1.8,4.2-3.6,5.7-5.4l0.1,0c0,0,0,0,0-0.1c0.9-1.1,1.7-2.1,2.3-3.1c0,0,0.1-0.1,0.1-0.1c0.3-0.4,0.5-0.8,0.8-1.2&#10;&#9;&#9;&#9;c0.6,0,1.7,0,2.7,0.1c1.7,0.1,3.3,0.1,4.7,0.1c1,1.7,2.6,2.3,3.3,1.8c0.4-0.3,0.6-1.1,0.6-1.9c1-0.1,1.8-0.3,2.1-0.5&#10;&#9;&#9;&#9;c0.7-0.5,0.9-1.5,0.5-2.4c-0.5-1.2-2.3-2.6-5.4-2.1c-0.6,0.1-1.1,0.2-1.6,0.2c0-0.1-0.1-0.2-0.1-0.2s-2-0.7-2.9-1.2&#10;&#9;&#9;&#9;c0.6-0.3,1.1-0.8,1.1-1.4c0-0.4-0.2-0.9-0.6-1.1c0,0-0.2-0.1-0.4-0.1c0.1-0.3,0.2-0.6,0.2-1c1-0.4,1.9-0.8,2.2-0.8&#10;&#9;&#9;&#9;c2.9,0.3,6.3,0,7.3-1.7c0.4-0.8,0.3-1.7-0.3-2.5c-2.3-2.8-6.1-2.2-9.7-0.6c-0.6-1.4-1.6-2.8-3.1-4.3c-1.4-1.4-2.8-1.3-3.6-1&#10;&#9;&#9;&#9;c-2.3,0.4-6.6,3.6-9.8,6.2c-0.1-1.1-0.2-3.7,0.9-5.8c1.4-2.8,0.8-5.7-1.1-3.8c0,0-0.2-1.7,0.4-2.9c0,0,0.7-8.4-2.1-7.8&#10;&#9;&#9;&#9;c0,0,0.7-2.6,3.8-3.1c3.1-0.4,4.7-2.3,4.7-2.7c0-0.4,1.2-3.8-2.3-3.7c-3.5,0.1-4.7,3.2-4.8,3.6c-0.1,0.4-4.6,4.4-5.2,4.6&#10;&#9;&#9;&#9;c-0.6,0.1-0.8-0.1-1.1-0.4c-0.3-0.3-1.4,0.4-1.4,0.9c0,0.2-0.2,0.4-0.3,0.5c-1.4-2.4-2.8-3.6-4.4-3.8c-0.1,0-0.2,0-0.3,0&#10;&#9;&#9;&#9;c-0.2-0.7-0.6-1.5-1.4-2.3c-3.7-4-9.8-5.5-11.2-11.3c0-0.3,0-0.7-0.1-1c0,0.1-0.1,0.2-0.1,0.3c0,0,0,0,0,0c0,0,0,0,0,0&#10;&#9;&#9;&#9;c-1.7,5.8-8.2,10-9.1,15.8c-1.1-1.5-2.5-2.8-4.4-2.6c-0.5,0.1-1.2,0.4-1.6,1.5c-0.3,0.7-0.4,1.6-0.4,2.6c0,0.4,0,0.8,0.1,1.3&#10;&#9;&#9;&#9;c-1.7,0.6-4,2.2-3.5,6.2c0,0-2.4,2.8-2.5,4.8c-2.1-0.2-4.2,0.9-5.7,2c-3.5,0.6-7.9,1.3-11.6,1.7c0.1-0.1,0.3-0.2,0.4-0.3l-2.3,0.5&#10;&#9;&#9;&#9;c-0.5,0-0.9,0.1-1.4,0.1c0.9-1,1.8-1.8,2.5-2.3l-1-2.1c-1.7,0.5-3.6,1.1-5.7,1.7c-0.3-1.2-1.3-2.1-2.5-2.1c-0.3,0-0.5,0-0.8,0.1&#10;&#9;&#9;&#9;c0.4-0.6,0.7-1.3,0.7-2c0-2-1.8-3.6-4-3.6c-1.1,0-2.1,0.4-2.9,1.1l-1.9-2.7c-0.1-0.1-0.8-1.1-2.2-1.3c-0.4-0.1-0.9,0-1.3,0.1&#10;&#9;&#9;&#9;c0-0.1,0-0.2,0-0.3l0.8-0.9c0.2-0.1,0.3-0.2,0.4-0.3c0.3,0.1,2.2,0.7,2.2,0.7s-0.2-2.8-0.3-3.3c0.3-0.2,1.3-0.9,1.3-0.9&#10;&#9;&#9;&#9;c0.1-0.1,0.5-0.4,0.5-0.8c0,0,0-0.1,0-0.1c-0.1-0.4-0.3-0.6-0.9-0.8c-0.8-0.2-2.1-1.1-2.4-1.4c-1.6-4.7-1.9-4.9-2-5l-0.7-0.7&#10;&#9;&#9;&#9;l0,0.3l-0.1-0.3l-1.8,2.8c-0.1-0.1-0.3-0.2-0.5-0.2l-0.2,0l-0.1,0.1c-1.2,1.3-3.3,3.6-3.2,4.6v0l0,0c0,0.1,0,0.2,0.1,0.4&#10;&#9;&#9;&#9;c-0.8,0.1-1.4,0.7-1.5,1.4c-0.1-0.4-0.3-0.6-0.9-0.6c-0.5-1-3.2-1.6-5.8-2.6c-0.6-6,1.5-11.6,6.2-16.8c0.4,0.4,1,0.6,1.6,0.6&#10;&#9;&#9;&#9;c0.9,0,1.7-0.5,2.1-1.2c0.1,0,0.3,0.1,0.5,0.1c1,0,1.8-0.8,1.8-1.8c0-1-0.8-1.8-1.8-1.8c-0.1,0-0.2,0-0.2,0&#10;&#9;&#9;&#9;c0.2-0.2,0.3-0.5,0.3-0.8c5.2-6.5,10.6-15,8.6-20.6c-0.7-1.8-1.9-3-3.7-3.5c-2.1-0.6-4.6-0.1-7,0.9c-0.8-1.2-3.7-0.3-5.9,0.9&#10;&#9;&#9;&#9;c-0.2,0.1-0.3,0.2-0.5,0.3c-0.4,0.2-0.7,0.9-1.4,0.6c-0.2-0.2-0.4-0.5-0.5-0.7c-0.1-0.1-0.1-0.3-0.2-0.4c-0.2-0.2-0.2-0.5-0.2-0.8&#10;&#9;&#9;&#9;c-1-1-2.6,0.7-2.1,1.7c-0.1,0.1-0.1,0.3-0.2,0.4c-0.1,0.1-0.2,0.2-0.3,0.4c-0.1,0-0.3-0.1-0.4-0.1c-0.1,0-0.3,0-0.4-0.1&#10;&#9;&#9;&#9;c-0.2,0.1-0.5,0.1-0.7,0.1c-0.1,0-0.3-0.1-0.4-0.1c-0.3-0.1-0.5-0.2-0.8-0.3c-0.1,0-0.2-0.1-0.3-0.1c-0.4-0.3-0.8-0.4-1.3-0.3&#10;&#9;&#9;&#9;c-0.1,0-0.3,0.1-0.4,0.1c-1.5,1.2,0.8,4.8-1.8,4.3c-0.2,0-0.3,0-0.4,0c-0.3,0-0.5,0.1-0.6,0.4c-0.3,1.3,0.7,2.3,1.4,3.7&#10;&#9;&#9;&#9;c0.1,0.1,0.1,0.2,0.2,0.3c-0.1,0.1-0.1,0.1-0.2,0.2c-0.1-0.1-0.2-0.2-0.3-0.3c-2.4-1.1-3.7-3.4-6.5-3.2c-0.1,0-0.2,0-0.3-0.1&#10;&#9;&#9;&#9;c-1.6-0.3-3.5-0.4-5.7,0c0,0-1.1,2.4,0.1,2.4c0,0,4.9-1.3,6.9,1.3c0,0-6.5,10.3-6.5,12.4c0,0-14.5-6.6-14.2,9.9&#10;&#9;&#9;&#9;c0,0-3.3-0.8-1.6,2.8c1.5,3.2,1.9,2.8,2,2.7c-0.2,0.4-2.5,5.3-1.5,6.9l2.5,1.5c0,0-2.7,3.2-2.1,4.1c0,0,0.7,0.2,1.6,0&#10;&#9;&#9;&#9;c-0.4,2.2-0.6,4.1-0.8,5.4c-0.6,0.3-1.2,0.6-1.8,1c-2.7-3.8-3.7-3.7-4.5-3.2l-0.2,0.1l-0.1,0.1c-0.1,0.1-0.7,0.9-1.3,2.2&#10;&#9;&#9;&#9;c-0.8-1.1-1.6-2.4-2.3-4c0,0-3.9-3.4-2.7,5c0,0,1.3,4.2,2.5,7.8c-1.6,0.8-3.4,1.8-3.4,1.8l0,0.7c0,0,0,0,0,0.1&#10;&#9;&#9;&#9;c0,0.4,0.1,1.7,1.8,3.1c-0.1,0.1-0.2,0.3-0.3,0.4c-0.1,0.1-0.2,0.3-0.3,0.4c-0.1,0.2-0.2,0.3-0.3,0.5c-0.1,0.1-0.2,0.3-0.3,0.4&#10;&#9;&#9;&#9;c-0.5,0.8-1.4,1.4-1.1,2.1c1.6,2,3.6-0.3,5.2,0c0.2,0,0.3,0.1,0.5,0.1c0.1,0.1,0.3,0.2,0.4,0.3c0,0.1,0,0.2,0,0.3&#10;&#9;&#9;&#9;c0.1,1.1,0.3,3.4,0.8,5c0,0.1,0.1,0.2,0.1,0.3c1.9,1.9,1.9,4.2,1.2,6.8c3.3-1.3-0.7-5.9,2.8-6.3c0.1,0,0.2-0.1,0.3-0.1&#10;&#9;&#9;&#9;c0.7-0.2,1.3-0.5,1.6-0.9c0.2-0.2,0.5-0.3,0.8-0.4c0.7,0.7,1.4,1.3,2.1,1.5l0.8,0.3l0-0.1c0.1,0.1,0.1,0.2,0.2,0.3&#10;&#9;&#9;&#9;c1.2,2,2,3.2,2.5,3.2c0,0-0.9,6,0.1,6.2c0,0,0.8,1.5,0.9-6.2c0,0,1.8-0.4,1-2.5c0,0-1.3-3.1-2.2-5c0.1-0.1,0.1-0.3,0.2-0.4&#10;&#9;&#9;&#9;c0.6,0.5,1.2,1.1,1.5,1.1c0.4-0.1,1.3-3,1.1-3.9c-0.1-0.5,0-0.8,0.3-0.8c2.3,2.5,3,3.3,3.2,3.5c0,0,0,0,0,0c0.1,0.1,0.9,1.2,2.3,1&#10;&#9;&#9;&#9;c0.5-0.1,1-0.3,1.4-0.6c0.5,0.3,1,0.6,1.4,0.8c-0.3,1.5-0.5,3-0.8,4.4c-0.6,0.8-1.3,1.7-1.7,2.3c-0.1,0.1-0.1,0.2-0.2,0.2&#10;&#9;&#9;&#9;c-1.3,1.8-2.6,3.1-2,5.4c0.7-0.7,1.6-0.7,2.3-1.3c-0.3,0.7,1,1,0.1,1.6c0,0.1,0,0.2-0.1,0.4c-0.4,2.1-0.6,3.5-0.6,3.5&#10;&#9;&#9;&#9;s0.1,0.1,0.4,0.1c0.1,0,0.2,0.1,0.4,0.2c2.1,1.5,5,1.8,5.7,4.4c0.7-0.3,1-1,1.8-1c0.1,0,0.2,0,0.3,0.1c0.6,0.2,1.1,0.3,1.4,0.3&#10;&#9;&#9;&#9;c0.1,0,0.3,0.1,0.5,0.2c0.1,0.1,0.2,0.2,0.3,0.2c0.1,0.1,0.2,0.2,0.3,0.4c0.1,0.1,0.2,0.3,0.2,0.4c0.6,1.3-0.7,2.6,0,3.6&#10;&#9;&#9;&#9;c1,0.7,1.6-1.3,2.9-0.6c0.1,0.1,0.2,0.2,0.2,0.4c0.9,1.3,2.1,2.5,2.2,4c0,0.2,0.1,0.3,0.1,0.5c0.1,0.5,0.1,1,0,1.6&#10;&#9;&#9;&#9;c0.9-0.2,1.4-0.5,1.6-1c0-0.1,0.1-0.2,0.1-0.4c1.6-1.9,0-3.2-0.7-5.2c0-0.1,0-0.3,0-0.4c0-0.4-0.1-0.8-0.2-1.2&#10;&#9;&#9;&#9;c0,0,0.3,0.3,0.4,0.2c0.1,0,0.2,0.1,0.4,0.1c1.8,0.7,6,2.3,7.9,3.1c0.1,0.1,0.3,0.1,0.4,0.1c0.1,0.2,0.2,0.3,0.3,0.5&#10;&#9;&#9;&#9;c0.1,0.2,0.1,0.3,0.1,0.5c0.1,0.5-0.1,1-0.3,1.5c-0.1,0.2-0.2,0.3-0.3,0.5c-0.1,0.1-0.2,0.3-0.3,0.4c-0.1,0.1-0.2,0.3-0.3,0.4&#10;&#9;&#9;&#9;c-0.5,1.2-1.8,3.1-0.8,3.8c1.3,1.3,2.9-1.3,3.1-2.8c0-0.1,0.1-0.3,0.1-0.4c0.1-0.4,0.2-0.8,0.3-1.2c0-0.2,0.1-0.3,0.1-0.5&#10;&#9;&#9;&#9;c0-0.2,0-0.3,0-0.5c0-0.2,0.1-0.4,0.1-0.5c0.1-0.2,0.1-0.3,0.2-0.5c0-0.2,0-0.3,0-0.5c0.1-1.4-0.1-3-0.2-3.7l2,4.6l0.2-0.4&#10;&#9;&#9;&#9;c0.3,1.5,0.4,3-0.3,3.9c0,0,0.8,1,2,2.3c0,2.9,0.4,6.5,1.9,7.6c2.4,1.7,5,1.1,6.4,0c0.5-0.4,3.4-3.2,4.8-4.9&#10;&#9;&#9;&#9;c0.6,0.6,1.2,1.8,1.2,3.8c0.1,4.3,0,10.6,1,10.6c1,0,1.4-4.6,1.5-5.8c0.1-1.2,0.5,0.8,0.5,0.8s1-0.5,1-1c0-0.4,1.1,0,1.4-0.1&#10;&#9;&#9;&#9;l9.5-14.3c0,0,3.1-0.2,4.5,1.7c1.2,1.6,1.3,2.3,1.9,2.1c0,0.4,0,0.8,0,1.3c0,2.5,0.2,5.5,1,6.7c0,0,0,0,0,0&#10;&#9;&#9;&#9;c0.1,0.3,0.3,0.6,0.5,0.6c0.3,0.2,0.5,0.3,0.8,0.3c0.6,0.1,1.1-0.1,1.5-0.5c1-0.9,1.2-3,1.2-4.8c0-0.3,0-0.6,0-0.9&#10;&#9;&#9;&#9;c0.6,0.1,1.5,0,1.7-1.2c0,0,3,1.3,2-2.8c0,0,1.1-0.9,0.2-2.8l-0.4-1.4c1.5-0.5,4.1-1.3,5.4-1.8c-0.1,0.9-0.6,4.2-0.6,7.5l0,0&#10;&#9;&#9;&#9;c-0.9,0.3-1.5,1-1.8,2c-0.4,0.3-1.5,1.2-2.3,2.3c0.1-0.2,0.1-0.4,0.1-0.6c0-0.9-0.6-1.6-1.2-1.6s-1.2,0.7-1.2,1.6&#10;&#9;&#9;&#9;c0,0.9,0.6,1.6,1.2,1.6c0.3,0,0.6-0.2,0.8-0.4c-0.2,0.3-0.3,0.7-0.3,1.1c0,0,0,0.1,0,0.1c0.1,0.8,0.5,1.4,1.4,1.8&#10;&#9;&#9;&#9;c0.1,0,0.1,0,0.1,0.1c-1.2,0.6-2.2,1.5-1.9,2.9c0,0-0.3,0.9,3.3,2c0,0,3.4,15.2,5,16.6c1.6,1.4,2-1.4,2.5-2.2&#10;&#9;&#9;&#9;c0.5-0.8,1.9-4.7,1.9-4.7l0.2,1.4l0.9-0.2c0,0,0.3-4.1,1.9-5.3c0,0,1.7-0.8,1.7-2c0,0,0.1,2.6,0.6,2.7c0,0,0.7-0.2,0-3.7&#10;&#9;&#9;&#9;c-0.7-3.5,2.5-4.8,2.6-2.3c0,0,0.7,1.4,1,0.4c0.2-1.1,3.3-12.3,1.7-14.5c-0.5-0.6-0.6-1-0.6-1.2c0.1-0.1,0.1-0.2,0.2-0.3&#10;&#9;&#9;&#9;c0.2-0.1,0.6-0.2,1-0.3l4.5,2.2c0,0-0.3-0.6-0.6-1.4l3.1,1.5l2.8,5.1l4.5-2.5c0,0.3-0.1,0.6-0.1,1c0,1,0.1,1.9,0.4,2.7&#10;&#9;&#9;&#9;c-1.6,1.2-3.5,2.7-4.9,3.8c-3.8,3.1-8.7,12.8-6.9,17c0.4,1,1.4,2.1,3.6,2c0.2,0,0.6,0.1,1.1,0c0.1,0,0.3,0,0.4,0&#10;&#9;&#9;&#9;c0.4,0.1,0.7,0.3,1,0.5c0.1,0.1,0.3,0.2,0.4,0.3c1.4,1.3,0.4,4.2,1.7,3.9c2.3-0.3,1.6-4.2,1.6-6.4c0-0.2,0-0.3,0-0.5&#10;&#9;&#9;&#9;c0-0.5,0-1-0.1-1.5c0-0.2,0-0.3,0-0.5c0-0.2,0-0.3,0-0.5c0-0.1,0.1-0.3,0.1-0.4c0.1-0.4,0.2-0.8,0.4-1.1c0.1,0,0.2,0,0.4,0&#10;&#9;&#9;&#9;c0.3,0,0.7-0.1,1.1-0.1c0.1,0,0.3,0,0.4,0c0.3,0,0.6,0.1,0.9,0.2c0.1,0.1,0.2,0.2,0.3,0.3c1.1,0.9,0.8,3.8,2.8,3.2&#10;&#9;&#9;&#9;c0.7-0.3,0.3-2.3,0.4-3.6c0.1-0.1,0.1-0.3,0.1-0.4c0.1-0.3,0.1-0.6,0.1-1c0.1-0.1,0.1-0.3,0.2-0.4c0.1-0.1,0.2-0.2,0.3-0.3&#10;&#9;&#9;&#9;c0.1-0.1,0.1-0.2,0.2-0.4c0-0.1,0.1-0.2,0.1-0.4c0-0.1,0-0.2,0-0.4c0-2.1-2-3.7-3.1-4c-0.2-0.1-0.6-0.1-1,0&#10;&#9;&#9;&#9;c-0.4-0.7-0.6-2.4-0.1-4.2c0.2-0.7,0.4-1.3,0.5-1.8c0.8,0.6,1.7,1,2.6,1c0.8,0,1.6-0.3,2.3-0.8c0.1,0.3,0.1,0.6,0.2,1&#10;&#9;&#9;&#9;c0.9,5.4,1.7,9.7,3.1,11.1c0,0,0.5,0.4,0.5,0.4c0.2,0.2,0.3,0.2,0.6,0.2c0.6,0,2.1-0.3,5.3-1.1c3.7-0.8,8.7-1.9,13.5-2.6&#10;&#9;&#9;&#9;c0,0,0.4-0.1,0.4-0.1l0.1,0c0.5-0.1,0.8-0.5,0.8-1c0,0,0-0.1,0-0.1c0-0.4-0.2-0.8-0.6-1c0,0-1.4-0.8-2.5-1.3&#10;&#9;&#9;&#9;c0.3-0.5,0.8-1.3,0.8-1.3c0.1-0.1,0.1-0.2,0.1-0.3c0.6-2,0.9-3.9,0.9-5.5c0-1.6-0.3-3.1-0.8-4.4c0.1-0.1,0.3-0.2,0.6-0.2&#10;&#9;&#9;&#9;c0.3,0.1,0.7,0.3,1,0.5c0.6,0.4,1.1,0.7,1.5,1c-0.5-0.2-1.4-0.5-1.4-0.5l0.2,1c-0.2,0-0.4,0-0.6,0c-0.4-0.1,0.1,2.1,0.9,4.4&#10;&#9;&#9;&#9;c0,0.2,0.1,0.3,0.1,0.4c0.1,0.2,0.1,0.3,0.2,0.5c0.1,0.2,0.1,0.3,0.2,0.5c0.5,1.9,0.7,3.8,1,5.6c0,0.2,0.1,0.3,0.1,0.5&#10;&#9;&#9;&#9;c0,0.2,0,0.5,0.1,0.7c0,0.2,0,0.3,0,0.4c0,0.4,0,0.9,0.1,1.4c0,0.2,0,0.3,0.1,0.5c0,0.2,0.1,0.5,0.1,0.7c0,0.2,0.1,0.5,0.1,0.7&#10;&#9;&#9;&#9;c0.5,1.1,0.4,2.3,0.3,3.5c0,0.2,0,0.3,0,0.5c0.1,0.3,0.2,0.6,0.2,0.9c0,0.2,0,0.3,0,0.5c-0.1,1.2-1.4,4.5,0.6,4.2&#10;&#9;&#9;&#9;c2,0,0.3-2.6,0.6-4.1c0-0.1,0-0.2,0-0.3c0-0.3,0-0.7,0.1-0.9c0-0.2,0-0.3,0-0.5c0-0.2,0-0.3,0-0.5c0-1-0.1-2,0-2.9&#10;&#9;&#9;&#9;c0-0.2,0-0.3,0-0.5c0-0.4,0-0.8-0.1-1.2c0-0.2,0-0.3,0-0.5c0-0.5-0.1-0.9-0.1-1.4c0-0.1,0-0.2,0-0.4c0.1-1.2,0.1-2.5,0.5-3.6&#10;&#9;&#9;&#9;c0-0.2,0.1-0.3,0.1-0.5c0.6-0.4-0.1-1,0.3-1.6c0-0.1,0.1-0.3,0.1-0.4c0-0.1,0.1-0.3,0.1-0.4c0-0.1,0-0.2,0.1-0.3&#10;&#9;&#9;&#9;c0.1-0.3,0.1-0.5,0.2-0.8c0.5,0.1,2.6,0.7,2.6,0.7s-0.5-3.9-0.6-5c2.8-1.5,4.5-5.5,4.7-6l0.3-0.7L617.1,199.8z M456.7,165.4&#10;&#9;&#9;&#9;c-0.1-0.2-0.2-0.4-0.2-0.6c0-0.3,0.1-0.6,0.4-0.9c0.1-0.1,0.3-0.2,0.5-0.3c0.2,0.2,0.5,0.3,0.7,0.5&#10;&#9;&#9;&#9;C457.6,164.6,456.7,165.3,456.7,165.4z M486.3,192.8c-0.1,0.2-0.1,0.4-0.2,0.6c0-0.1-0.1-0.1-0.1-0.2c-0.9-1.7-4-7.7-4.1-7.9&#10;&#9;&#9;&#9;c0,0,0.3,0.1,0.7,0.2c0.1,0.1,0.2,0.1,0.2,0.1s0,0,0-0.1c0.5,0.1,1.2,0.3,1.7,0.4c0.3,1.2,1.1,3.8,2.1,4.1&#10;&#9;&#9;&#9;C487.1,190,486.7,191.3,486.3,192.8z M480.5,148.7c-1-1.5,0.9-4.1,0.9-4.1c0.3,0.4,2.6,0.3,4.4-0.2c1.8-0.5,1.8,0.7,1.8,0.7&#10;&#9;&#9;&#9;l0.2,1.1C486.7,148.5,481.4,150.2,480.5,148.7z M560.9,140.7c0.8,0.3,1.7,0.5,2.6,0.4c-0.5,1-0.9,2.1-1.3,3.2&#10;&#9;&#9;&#9;c-1.1-0.6-1.5-1.9-1.9-3.2l0.7,0.5L560.9,140.7z M558.2,140.3C558.2,140.3,558.2,140.2,558.2,140.3c0.1,0.7,0,1.3-0.2,1.9&#10;&#9;&#9;&#9;l-0.8-0.1C557.5,141.4,557.9,140.8,558.2,140.3z M556.7,149.2c-0.9-0.2-2.2-0.3-3.6,0.6l0-0.1c0,0,2.4-1.3,2.9-0.9v-1&#10;&#9;&#9;&#9;c0.1,0,0.3,0,0.4,0c0.5,0.2,1.4,0.4,2.1,0l0.3,0l-0.1-0.2c0,0,0.1,0,0.1-0.1c0.5-0.4,0.4-0.8,0.2-1.2c0.9,0,1.7,0,2.5,0&#10;&#9;&#9;&#9;c-0.6,1.9-1,3.4-1.1,3.8c-0.1,0.5-0.2,1.1-0.4,1.7C559.4,150.6,558.2,149.5,556.7,149.2z M566,194.8l-3.5,2&#10;&#9;&#9;&#9;c-0.1-0.6-0.2-1.1-0.2-1.7c0,0-0.1,0.9,0,1.9l-1.8,1.1l2,0.9c0.1,0.4,0.2,0.7,0.3,0.9l-2.9-1.4c0.1-0.1,0.2-0.1,0.2-0.2&#10;&#9;&#9;&#9;c0.6-1,3-6.1,2.9-6.9l1.2,2.2c0,0,1.5,0.3,2-0.1c0.2,0.2,0.3,0.4,0.5,0.6L566,194.8z M572.8,194.9c0-0.1,0-0.1,0-0.2&#10;&#9;&#9;&#9;c-0.1-0.3-0.1-0.7-0.2-1.1c0,0,0,0,0,0c0.4,0.3,1,1,1.4,2.1L572.8,194.9z M577.5,190.5c0.3-0.5,1.3-1.3,2.4-2&#10;&#9;&#9;&#9;c-0.2,0.2-0.3,0.3-0.4,0.4C578.8,190,577.9,190.4,577.5,190.5z M579.6,197.5c0.2-0.6,0.9-1.3,1.8-2c0,0.2-0.1,0.4-0.1,0.6&#10;&#9;&#9;&#9;c0,0.8,0.2,1.6,0.6,2.4c0,0.2,0.1,0.4,0.1,0.5C581.4,198.2,580.6,197.7,579.6,197.5z M580.9,187.6c0-0.1,0.2-0.5,0.3-0.9&#10;&#9;&#9;&#9;c0.4,0,0.5,0,0.9-0.1C581.7,186.9,581.2,187.3,580.9,187.6z M585,204.6c-0.2-0.2-0.4-0.4-0.4-0.4c-0.2-0.2-0.5-0.5-0.7-0.7&#10;&#9;&#9;&#9;c-0.1-0.6-0.2-1.3-0.4-1.8c0.5,0.5,1.1,1,1.8,1.6c0.1,0.1,0.2,0.3,0.4,0.4C585.5,203.9,585.3,204.2,585,204.6z" style="fill: rgb(19, 14, 61);"/>
		<path class="st3" d="M544.3,196.3c0,0-0.9,5.4,0.2,6.3c0,0-4-2.9-5.3,1c0,0-5,3.5-1.6,5.2c3.4,1.7,4.9,1.1,5.2,4.6&#10;&#9;&#9;&#9;c0.3,3.5,3,6.2,3.7,5.7c0.7-0.5,3.6-5.8,3.6-6.8c0-1.1,3,1.5,3.5,0.8c0.5-0.7,1.3-3.4,1.2-3.9c-0.2-0.5-2.2-0.9-3.1-0.9&#10;&#9;&#9;&#9;c-0.9,0,1.2-5.1,1-5.5C552.5,202.3,547.2,203.2,544.3,196.3z" style="fill: rgb(255, 255, 255); stroke: rgb(35, 31, 32);"/>
		<path class="st5" d="M574.7,166.2c0.3,0.3,0.5,1.3,0.5,1.3l1.7-1.4C576,166.7,574.4,165.9,574.7,166.2z M616.3,200.6&#10;&#9;&#9;&#9;c-3.1-3.3-15.1-7.5-15.1-7.5c0.4-0.5-0.8-4.2-0.8-4.2c-1.3,0.6-2.4,3-2.4,3l2.1,2.9l-0.4,0.5l-3-2.2l-1.3-0.3l-1.5-2.1&#10;&#9;&#9;&#9;c7.4-1.2,3.5-4.4,3.5-4.4c-6.4-5.5-15.5,1.3-17,3.3c-1.4,2-3.8,2.8-4.2,1.3c-0.4-1.5,3.5-3.7,3.5-3.7l0.6-1.7l2.8-0.2&#10;&#9;&#9;&#9;c12.6-7.6,14.7-18,14.7-18c1.1,0,2.6-1,2.1-1s-1.2-0.6-1.2-0.6c2.2-5.2-1.5-9.2-2.9-10.5c-1.3-1.3-2.4-0.7-2.4-0.7&#10;&#9;&#9;&#9;c-3,0.3-12.6,8.8-12.6,8.8c-0.9,1.5-2.9-5.1-2.8-6.6c0.1-1.5-0.5-4.9-1.3-5.5c-0.8-0.5-0.8,0.9-0.8,0.9l-0.6-0.2&#10;&#9;&#9;&#9;c0,0,2.1-6-1.2-11.9c-3.3-5.9-5.6-3.4-7.6-1.4c-2,2.1-3.9,7.7-4.8,11.7c-1,3.9-1.4,10.7-1.4,10.7c0,0.9-0.6,0.2-0.6,0.2&#10;&#9;&#9;&#9;c-0.4-1.8,0.8-6.8,0.8-6.8s-3-6.4-7.2-3.3c-4.2,3.1-4.6,10.2-4.6,10.2l0.5,0.7c0.1-5,2.8-5.9,2.8-5.9c-0.8,1.2-1.2,8.4-1.2,8.4&#10;&#9;&#9;&#9;s0.8,1.3,1.4,2c0.7,0.7,0.8,1.1,1.7,0.7c0.6-0.3,0.5-1.5,0.4-2.3c-0.1-0.2-0.1-0.4-0.1-0.6c0-0.1,0-0.1,0-0.1c0,0,0,0,0,0&#10;&#9;&#9;&#9;c0-0.2,0-0.5,0.1-0.8c0.3-1.3,1.2-2.2,2.1-2.1c0.9,0.2,1.3,1.4,1,2.7c-0.2,0.9-0.7,1.6-1.3,1.9c0,0.1-0.1,0.1-0.2,0.2&#10;&#9;&#9;&#9;c-1.3,1.2-1.1,3.7-1.1,3.7l0.8,0.6l0.4-0.5c0.2-1.4,4.1-4.6,5.2-5.5c-4,3.6-8.6,25.6-8.6,25.6c-9.1,1.1-3.4-2.8-3.4-2.8&#10;&#9;&#9;&#9;c-6.8-8.9,2.8-11.7,2.8-11.7c0.4-4.3-11.7-21.9-15.1-23.3s-7.7,2.8-7.7,2.8s-1,1.3-0.8,2.3c0.2,1,5,30.4-1.3,39&#10;&#9;&#9;&#9;c-0.3,0.4-0.3,2.3,0,2.1c0.3-0.1,1.8-0.2,1.6,0.4c-0.2,0.6-0.6,10,1.1,10.2c1.7,0.3,1.3-5.6,1.3-5.6s0.1-4.9,0.1-6.1&#10;&#9;&#9;&#9;c0-1.2,1.1-1.3,1.2-1c0.1,0.3,0.6,0.9,0.9,0.7c0.3-0.1,0.4-0.5,0.4-1.1c0-0.6,0.4-0.9,0.4-0.9l7.1-2.3l3.8-7.2&#10;&#9;&#9;&#9;c-0.9,2-2.6,7.4,0.4,12c3.6,5.5,7.1,4.8,7.1,4.8c4.3-1,5.9-5.4,5.9-5.4c3.7-9.3,1.8-14,1.8-14s3.3,5.2,3.9,6.4&#10;&#9;&#9;&#9;c0.6,1.1,5.8,7.2,6.9,7.3c1.1,0.1,0.5-1,0.4-2.6c-0.1-1.6-1-1.7-1-1.7c-0.9-0.1-4.1-1.7-5.3-3.2c-1.1-1.5,1.3-4,1.3-4&#10;&#9;&#9;&#9;c-0.5-0.4-0.4-1.5-0.4-1.5c0.9-0.4,3-2.7,3-2.7l-0.6-1.5l-1.3,0.7c1.4-1.5,2.9-6.7,2.9-6.7s-2.2-4.1-3.6-9c-1.5-4.8,0.4-6,0.4-6&#10;&#9;&#9;&#9;c2.9-2.5,9.9,3.2,9.9,3.2c0.3-0.3-1.3-2.9-1.3-2.9l-0.4,1c0.1-1.2,0.4-4.9,0.4-4.9c0,2.1,1.3,2.4,2.8,6c1.5,3.6-1.8,1.5-1.8,1.5&#10;&#9;&#9;&#9;l-2.1-1.3c-5.1-3.6-7.1-2.3-7.1-2.3c-3.3,2.2,4,15.3,4,15.8c0,0.4,0.1,2,1.4,2.9c1.3,0.9,0.4,2.6,0.4,2.6s0,0,1.8,0.7&#10;&#9;&#9;&#9;c1.8,0.7,0.7,1.6,0.7,1.6l-2.5,2.8c-1.4,2-0.1,3-0.1,3s-1.1-0.5-1.5-1.1c-0.4-0.6-0.6-1.8,0.5-3.2c1.1-1.5,0.2-1.8,0.2-1.8&#10;&#9;&#9;&#9;c-2.1,0.3-11.8,6.3-3.3,8.7c8.5,2.4,9.4,7.3,9.4,7.3c0-2.8,6.8-5.9,6.8-5.9c1,0.2,1.7,1.4,1.7,1.4c-0.9-0.2-2.3-1.2-4,1.6&#10;&#9;&#9;&#9;s4.2,8.3,4.2,8.3l14.6,1.4c-2.1-4.2,4.2-0.9,4.2-0.9c10.1,6.4,1,3.3,1,3.3l1.6,8.7l1.4-5.7l2.1,0.5l-0.5-4.2&#10;&#9;&#9;&#9;C614.3,205.5,616.3,200.6,616.3,200.6z M574.7,168.2c0-0.3-0.4-1.4-0.4-1.4c0-0.2-1.2-2.2,0.9-1.9c2.1,0.3,4.8-1,4.8-1&#10;&#9;&#9;&#9;c-0.5,0.4-2.2,2-3.6,3.6C574.9,169,574.7,168.5,574.7,168.2z" style="fill: rgb(230, 103, 62);"/>
		<path class="st0" d="M579.6,181.6c0,0,2.8-0.5,4.7-5.8c1.9-5.2,7.8-10.8,7.8-10.8s12.2-10.4,16.6-5.1c1.3,1.6-1.5,2.8-5.9,2.3&#10;&#9;&#9;&#9;c-1.3-0.2-8.5,3.5-10,4.9c-1.3,1.2-6.5,5.7-8,9.4C583.2,180.2,579.6,181.6,579.6,181.6z" style="fill: rgb(255, 255, 255);"/>
		<path class="st0" d="M572.3,140.1c0,0-0.8-0.4-0.3,1.2c0.5,1.6,2.6,11.9,0.8,14.5c0,0,0.5-9.6-2.4-13c0,0-1-1-0.3-1.6&#10;&#9;&#9;&#9;c0.7-0.6,1.3-0.2,1.3-0.2S571.1,139.6,572.3,140.1z" style="fill: rgb(255, 255, 255);"/>
		<path d="M544.1,179.3c0,1.9-1.4,3.4-2.4,4.1c-0.7,0.5-1.4,1-2.1,1.5c0.1,0.2,0.2,0.5,0.2,0.8c0,0.9-0.5,2-0.9,2c0,0,0,0-0.1,0&#10;&#9;&#9;&#9;c-0.4-0.1-0.9-1-1.1-1.5c0,0,0,0-0.1,0c0.2,0.5,0.6,1.8,0.6,3c0,1.4-0.4,2.7-2.1,3c-0.3,0-0.5,0.1-0.8,0.1c-2.2,0-3.5-2-3.9-2.8&#10;&#9;&#9;&#9;c-0.3,0.1-0.7,0.3-1,0.4c0.2,0.4,0.3,0.9,0.3,1.3c0,2-1.7,4.2-3.3,4.2c-0.1,0-0.2,0-0.2,0c-1.8-0.2-3.1-2.8-3.6-3.8&#10;&#9;&#9;&#9;c-0.6,0.1-1.2,0.1-1.7,0.2l0,0.2l0.3,0.7c2,3.3,3.2,7,3.5,10.7c0.2,3.4-0.3,6.5-1.5,8.9c-1.2,2.3-2.8,3.6-4.7,3.7&#10;&#9;&#9;&#9;c-0.1,0-0.3,0-0.4,0c-1.3,0-2.7-0.4-4-1.2c-1.2-0.7-2.3-1.7-3.3-2.9c-1.1-1.3-1.9-2.9-2.4-4.5c-0.5-1.7-0.6-3.4-0.3-4.9&#10;&#9;&#9;&#9;c0.6-2.6,0.3-5.4-0.1-7.2c-0.1-0.8-0.3-1.5-0.5-2.1c-0.2-0.1-0.4-0.3-0.4-0.4c0-0.1-0.1-0.4-0.1-0.9c0-0.1,0-0.2,0-0.3l-0.7-3.1&#10;&#9;&#9;&#9;c-0.1-0.1-0.2-0.1-0.3-0.2c0,0.4-0.2,1-1,1.6c-0.5,0.3-0.9,0.5-1.4,0.5c-0.6,0-1.1-0.3-1.5-0.7c-0.4-0.3-0.5-1.3-0.5-2.3&#10;&#9;&#9;&#9;c0-0.7,0.1-1.5,0.1-1.8c-0.2-0.1-0.3-0.2-0.5-0.3c0,0.2-0.1,0.3-0.2,0.4c-0.2,0.2-0.6,0.3-1.3,0.5c-0.5,0.1-0.7,0-0.8,0&#10;&#9;&#9;&#9;c-1.2-0.8-1.1-3-1-3.7c-0.2-0.2-0.3-0.3-0.5-0.5c0,0,0,0,0,0c0,0.8-0.2,1-0.4,1c-0.1,0-0.3-0.1-0.3-0.1c-1-0.6-1.2-1.5-1.2-2.2&#10;&#9;&#9;&#9;c0-0.3,0-0.5,0.1-0.7c-0.5-0.6-0.9-1.1-1-1.2c-1.1-1.2-3.2-6.1-2.2-11.4c1.2-6.6,6.4-10.4,10.5-12.4c15.4-7.6,25.2-1,33.2,5.8&#10;&#9;&#9;&#9;c5.9,5,6.6,10,6.6,12.2c0,0.7-0.1,1.1-0.1,1.1l0,0.1l-0.1,0.1c-0.1,0.2-0.2,0.9-0.2,1.7c0,0.4,0,0.8,0.1,1.1&#10;&#9;&#9;&#9;C543.9,177.9,544.1,178.6,544.1,179.3z"/>
		<path class="st6" d="M496.4,178.4c0,0,18.2,25.1,44.9,4.3c0,0,3.3-2.1,1.5-5.3c0,0-0.3-2.5,0.3-3.4c0,0,1.1-6.3-6.3-12.6&#10;&#9;&#9;&#9;c-7.4-6.3-17.1-13.2-32.3-5.7C489.2,163.3,494.9,176.8,496.4,178.4z" style="fill: rgb(227, 195, 167);"/>
		<path class="st0" d="M531.3,177.8c0,0,0,1.8,2.6,2.2c2.5,0.5,6.1-1.4,6.1-1.4l1-1.2C541,177.4,533.2,176,531.3,177.8z" style="fill: rgb(255, 255, 255);"/>
		<path class="st1" d="M499.1,178.8c7.1,7.3,13.5,7,13.5,7c11.6-0.5,16.3-6.9,16.3-6.9c-14.1-7.2-25.8-2.4-26.4-2&#10;&#9;&#9;&#9;c-0.6,0.3-2.2,0.5-4.5,0.5s-2.4-3-2.4-3C495,178.5,499.1,178.8,499.1,178.8z" style="fill: rgb(35, 31, 32);"/>
		<path class="st7" d="M524.8,205c0,5.5-2.3,9.8-5.4,10c-0.1,0-0.2,0-0.4,0c-4.6,0-9.2-5.7-9.2-10.7c0-0.5,0.1-1.1,0.2-1.6&#10;&#9;&#9;&#9;c0.2-1.1,0.3-2.3,0.3-3.4c0-2.1-0.3-4.1-0.7-5.6c0,0,0,0,0,0c0.3,0.1,0.6,0.1,0.9,0.1c0.4,0,0.7-0.1,1-0.6&#10;&#9;&#9;&#9;c0.4-0.7,1.2-1.8,1.4-2.6c0.3,0.1,0.7,0.2,1,0.3l0.7,2.2c0,0,0.3,1.1,1.7,1.7c0.7,1.7,1.4,3.6,1.5,4.9c0.2,2.6,0.2,4.2,0,6.1&#10;&#9;&#9;&#9;c0,0.3,0.9-4.6,0.9-5.7c0-0.6,0-2.3-0.9-5c0.3,0,0.6,0.1,0.9,0.1c1.3,0,2.3-0.4,2.6-1l0.2-1C523.8,197.3,524.8,201.4,524.8,205z" style="fill: rgb(188, 51, 146);"/>
		<path class="st1" d="M499.2,173.1l3.6-5.7c0,0,18.1-10.8,26,7.8l-0.5,1.6c0,0-1.1,0.4-0.1-1.1c0,0-6-16.6-24.6-7.9l-3.8,5.4&#10;&#9;&#9;&#9;L499.2,173.1z" style="fill: rgb(35, 31, 32);"/>
		<path class="st1" d="M530.4,176.6c0,0,0.8-0.3,0.9-0.6c0,0-0.5-3.1,1-4.5c0.8-0.8,3.6-3.6,7.4,0.3c0,0,1,1,1.4,2&#10;&#9;&#9;&#9;c0.4,1.1,1.1,2.1,1.4,2.1l-0.1,0.5c0,0-1.2-1.1-2.2-3.1c-1-2-4.6-4.7-7.7-1.4c0,0-1.3,1.3-0.6,3.6c0,0,0.1,0.7-0.5,1&#10;&#9;&#9;&#9;C530.7,176.9,530.4,176.6,530.4,176.6z" style="fill: rgb(35, 31, 32);"/>
		<path class="st1" d="M542.9,177.9l-0.3-0.6c0,0-8.9-1.9-11.8,0.4c0,0,0,0.4,0.8,0.3c0,0,0.4-0.4,0.8-0.4c0.4,0,1.5-1.1,8.5-0.1&#10;&#9;&#9;&#9;c-0.2,0.4-1.2,1.7-4,2.3c-3.4,0.8-4.6-0.7-5-0.9c0,0-1.1,0-1.2,0.2c-0.1,0.3,1.3,0.1,2.2,0.8c0.8,0.6,6.8,0.6,8.3-2.5&#10;&#9;&#9;&#9;c0.5,0.1,1,0.2,1.5,0.2L542.9,177.9z" style="fill: rgb(35, 31, 32);"/>
		<path class="st1" d="M523.9,183.8c0,0-1.3,1.7-1.1,2.2c0,0-5.6,2.4-7.9,3.2c0,0,7.6-2,7.9-2.3c0,0,0.7,0.8,0.9,0.8&#10;&#9;&#9;&#9;c0.2,0,0.9,0.1,0.3-0.7C524,186.8,522.6,186.3,523.9,183.8z" style="fill: rgb(35, 31, 32);"/>
		<path class="st1" d="M526.3,186.4c0,0-0.8,0.4-0.7,0c0.1-0.4,0.8-0.6,1.1-0.7c0.9-0.3,3.9-0.5,5.4,0.7c1.6,1.2,2.6-0.8,2.3-1.8&#10;&#9;&#9;&#9;c-0.2-1,0.5-0.7,0.9-0.8c0.4,0,1.1-0.6-0.1-1.2c-1.2-0.6-1.5-1.3-1.9-2c-0.4-0.7-1.9-1.3-3.5-1.5c0,0,2.6-0.1,3.8,1.4&#10;&#9;&#9;&#9;c0.4,0.5,0.6,1.4,1.7,1.5c1.1,0.1,1.4,1.5,0.4,2c0,0-0.9,0.2-0.9,0.6c0,0,0.6,3.8-3.5,1.9C531.4,186.7,528.2,185.5,526.3,186.4z" style="fill: rgb(35, 31, 32);"/>
		<path class="st0" d="M498.1,182.7C498.1,182.7,498,182.7,498.1,182.7L498.1,182.7L498.1,182.7L498.1,182.7&#10;&#9;&#9;&#9;c-0.7-0.5-1.1-1.1-1.1-1.8c0-0.2,0-0.3,0-0.5c0.3,0.4,0.7,0.8,1.2,1.3C498.2,182.5,498.1,182.7,498.1,182.7z" style="fill: rgb(255, 255, 255);"/>
		<path class="st0" d="M501.8,185.6c-0.1,0.1-0.8,0.3-1.2,0.4c-0.3,0.1-0.4,0.1-0.5,0l0,0l0,0c-1-0.6-1-2.4-0.9-3.2&#10;&#9;&#9;&#9;c0.8,0.7,1.7,1.5,2.7,2.3C502,185.3,501.9,185.5,501.8,185.6z" style="fill: rgb(255, 255, 255);"/>
		<path class="st0" d="M506.7,188.3c0,0.3-0.1,0.9-0.9,1.5c-0.4,0.3-0.8,0.4-1.2,0.4c-0.4,0-0.9-0.2-1.3-0.6&#10;&#9;&#9;&#9;c-0.1-0.1-0.4-0.4-0.3-2.1c0-0.5,0-1,0.1-1.3c0.5,0.3,1.4,0.8,2.1,1.3c0.2,0.1,0.4,0.2,0.6,0.3&#10;&#9;&#9;&#9;C506.1,187.9,506.5,188.1,506.7,188.3z" style="fill: rgb(255, 255, 255);"/>
		<path class="st0" d="M511.6,192.8c-0.1,0.2-0.2,0.3-0.3,0.4c-0.2,0.3-0.4,0.4-0.7,0.4c-0.2,0-0.5-0.1-0.7-0.1l0,0&#10;&#9;&#9;&#9;c-0.5-0.1-1.2-0.6-1.4-0.7c-0.1-0.3,0-2,0-3.7c1.3,0.6,2.7,1.1,4.2,1.6C512.6,191.2,511.9,192.2,511.6,192.8z" style="fill: rgb(255, 255, 255);"/>
		<path class="st0" d="M521,194.3c-0.3,0.4-1.1,0.8-2.3,0.8c-0.4,0-0.9,0-1.4-0.1c-1.8-0.4-2.2-1.7-2.3-1.8l0,0v0l-0.7-2&#10;&#9;&#9;&#9;c0.7,0.2,1.4,0.3,2.2,0.4c1.7,0.2,3.4,0.3,5.1,0.2L521,194.3z" style="fill: rgb(255, 255, 255);"/>
		<path class="st0" d="M530,193.2c-0.6,1.1-1.6,1.9-2.4,1.9c-0.1,0-0.1,0-0.2,0c-1-0.1-1.9-1.2-2.5-2.1c-0.4-0.6-0.7-1.1-0.8-1.5&#10;&#9;&#9;&#9;c2.1-0.3,4.1-0.8,6.2-1.6C530.7,191,530.4,192.3,530,193.2z" style="fill: rgb(255, 255, 255);"/>
		<path class="st0" d="M537.8,188c0.1,0.9,0.2,2-0.2,2.9c-0.3,0.6-0.8,0.9-1.5,1c-0.2,0-0.5,0.1-0.7,0.1c-2,0-3.2-1.8-3.6-2.6&#10;&#9;&#9;&#9;c1.9-0.8,3.7-1.8,5.6-2.9C537.5,186.7,537.7,187.3,537.8,188z" style="fill: rgb(255, 255, 255);"/>
		<path d="M 538.9000244140625 187.39999389648438 L 538.9000244140625 187.39999389648438 L 538.9000244140625 187.39999389648438 Z"/>
		<path class="st0" d="M539.3,186.6c-0.2,0.5-0.4,0.7-0.4,0.8c-0.1,0-0.3-0.2-0.6-0.8c-0.1-0.2-0.2-0.4-0.2-0.5&#10;&#9;&#9;&#9;c0.5-0.3,0.9-0.6,1.4-0.9C539.6,185.5,539.5,186.2,539.3,186.6z" style="fill: rgb(255, 255, 255);"/>
		<path class="st8" d="M508,169.3c-0.1-0.4,0-0.9-0.3-1.2l-0.1,0.1c-0.2,1.1-0.4,2.2-0.5,3.4c-0.1,0-0.2,0-0.3,0&#10;&#9;&#9;&#9;c-0.3,0-0.6,0.1-0.9,0.1c0-0.6,0.1-1.8-0.2-2.1l0,0c-0.7-0.4-0.5,1.7-0.5,2c0,0.1,0,0.3,0,0.4c-0.1,0.1-0.2,0.1-0.4,0.2&#10;&#9;&#9;&#9;c-0.3,0.2-0.7,0.1-1.1,0.1c-0.1,0-0.2,0-0.3,0c0-0.6-0.1-1.1-0.2-1.3c-0.3-0.6-0.5-0.1-0.5-0.1s0,0.6,0,1.6&#10;&#9;&#9;&#9;c-0.1,0-0.1,0.1-0.2,0.1c-0.2,0.1-0.5,0.2-0.9,0.3c0-0.1,0-0.1,0-0.2c0-0.8-0.6,0.1-0.6,0.1c-0.5,2.3,0.3,1.8,0.3,1.8&#10;&#9;&#9;&#9;s0.1-0.6,0.2-1.1c0.3,0,0.6,0,0.9,0c0.1,0,0.1,0,0.2,0c0,0.3,0,0.6-0.1,1c-0.2,2.1-4.6-1.2-5.5-1.2c-1,0-0.9,0.6-0.9,0.6&#10;&#9;&#9;&#9;c0.1,0.2,0.2,0.2,0.6-0.2c0.4-0.4,2,0.7,2.8,1.2c0.8,0.5,2.6,1.2,3.3,0.6c0.3-0.3,0.5-1.2,0.5-2c0.1,0,0.2,0,0.3,0&#10;&#9;&#9;&#9;c0.3,0,0.5,0,0.7-0.2c0.3-0.1,0.4-0.3,0.7-0.3c0,0,0.1,0,0.1,0c0,0.4,0.2,0.9,0.4,1.3c0.4,0,0.2-0.7,0.3-0.9c0-0.1,0-0.3,0-0.4&#10;&#9;&#9;&#9;c0.2,0,0.3-0.2,0.5-0.2c0.1,0,0.4,0,0.7-0.1c0,0.3,0,0.5,0,0.8c0,0.3,0,1,0.4,0.7c0.3-0.2,0.7-1,0.7-1.4&#10;&#9;&#9;&#9;C508.3,171.4,508.2,170.3,508,169.3z" style="fill: none;"/>
		<path class="st0" d="M519.1,176.1c-5.6,7.5-12.6,2.3-14.3,0.9c-1.7,0.5-3.1,1.1-4.8,1.6c0,0,5.6,6.3,11.9,6.6&#10;&#9;&#9;&#9;c6.3,0.3,14.6-4.1,15.8-6.2C527.6,178.9,524,177,519.1,176.1z" style="fill: rgb(255, 255, 255);"/>
		<path class="st9" d="M518.7,176c-1.6-0.3-3.3-0.4-5.1-0.3c-3.8,0.1-6.2,0.5-8.2,1.1C512.5,182.7,517.3,177.8,518.7,176z" style="fill: rgb(255, 241, 0);"/>
		<path d="M516.4,175.4c-0.9-0.1-1.8-0.1-2.8-0.1c-3.2,0.1-5.5,0.4-7.3,0.9c1.3,1,2.9,1.5,4.6,1.5&#10;&#9;&#9;&#9;C513,177.7,514.9,176.9,516.4,175.4z"/>
		<path d="M 510.7 176.800003 A 0.7 0.6 0 0 1 510 177.400003 A 0.7 0.6 0 0 1 509.3 176.800003 A 0.7 0.6 0 0 1 510 176.200003 A 0.7 0.6 0 0 1 510.7 176.800003 Z" class="st0" style="fill: rgb(255, 255, 255);"/>
		<path d="M532.1,177.2c0,0,3.2,3.3,5.7-0.2C537.7,177,533.8,176.6,532.1,177.2z"/>
		<path d="M 534.700012 177.600006 A 0.5 0.4 0 0 1 534.200012 178.000006 A 0.5 0.4 0 0 1 533.700012 177.600006 A 0.5 0.4 0 0 1 534.200012 177.200006 A 0.5 0.4 0 0 1 534.700012 177.600006 Z" class="st0" style="fill: rgb(255, 255, 255);"/>
		<path class="st10" d="M492,144.5c0,0-3.3,0.8-5.1,3.4c-1.8,2.6-6.1,1.9-6.7,1.4c-0.7-0.5-1.7-5.5,1.1-6.4c2.8-0.8,4.6-0.6,6.4-2.6&#10;&#9;&#9;&#9;c0,0,2-1.5,2.8,2.4c0,0,0.8,0.9,1.7,1.3C493.1,144.6,492,144.5,492,144.5z M501,156.2c0,0,2.7-4.8,2.9-6.2l-4.9-7c0,0-1.4-2-4,0.1&#10;&#9;&#9;&#9;l-1.4,0.7c0,0-0.3-3.6-2.9-5.1c-2.6-1.5-5.6,0-5.6,0s-3.8,1-4.6-3.3c-0.8-4.3-0.9-11.7,6.2-19.6c7.2-7.9,14.7-18.4,12.6-24.3&#10;&#9;&#9;&#9;c-2.1-5.9-11.2-1.7-15.6,1.8c0,0-43.1,28.2-8.3,70.6c0,0-0.5,12.6,0.8,12.6c0,0,11.3-8.3,5.7-15.2c0,0-1.6-3.8-3.8-5.5l2.4,2&#10;&#9;&#9;&#9;c0,0,1.2,1.8,5.5,0.6c4.4-1.2,6.1-1.8,6.5-2c0.4-0.1,1.1-0.9,0.9,0.9c-0.2,1.8,0.8,2.1,1.1,2.4c0.3,0.3,1.3,1.2-0.2,3&#10;&#9;&#9;&#9;c-1.6,1.8-2.6,3.2-2.4,3.9c0,0-1.7,0.4-2.2-4.3c0,0-1.3-1.8-4.6-0.1c0,0-1.3,0.6-2,0.1c0,0,3.1,5-1.7,10.7&#10;&#9;&#9;&#9;c-4.8,5.7-4.9,5.5-5.7,5.6c0,0-1.4-2.1-1.2-6.3c0,0-0.1-6.6,0.1-7.5l-1.8-2.3l-4.7,1.9l-0.6,0.3l-1.6-3.1l-3.5,19.4l16.8,6.5&#10;&#9;&#9;&#9;l-2.1-4l3.4-1.9l2,0.5c0,0,1.5-6.8,5.8-10.9c0,0,0.9,3.1,0.3,5.6l1.9-6.6l0.7,0.1c0,0-3.6,12.6-1.6,17.1c0,0,1.8-3.5,1.7-5&#10;&#9;&#9;&#9;c0,0,1.6-0.9,2.6,0.3l-0.2,0.4l0.4,1.2l2.3-0.5c0,0-0.9-2.1-0.6-4.5c0,0-2.1-2.7-0.9-4.9c0,0-1.1,1.2-1.6,2.4l2.8-12.2&#10;&#9;&#9;&#9;c0,0,5.7-1.9,7.7-1.3c0,0-3.6,1.8-2.8,4.6l1.2-2.3l2.2,0.2c0,0,8.5-11.8,12.5-14.5C517.3,151,502,155.4,501,156.2z" style="fill: rgb(234, 104, 71);"/>
		<g>
			<path class="st10" d="M458.7,165.6c-0.8,0-1.4-0.7-1.4-0.7l0,0c-0.2-0.3-1.2-1.3-4.8-5.2c-6.1-6.6-6.1-11-6.1-12.6&#10;&#9;&#9;&#9;&#9;c0-3,2.6-25.6,13-32.5l1-0.7c4.4-2.9,6.3-4.2,7.7-4.2c1.4,0,2,1.3,3.1,3.7c0.4,0.8,0.7,1.7,1.2,2.7c3.7,7.6-2.7,26-3.2,27.4&#10;&#9;&#9;&#9;&#9;c0,0.1,0,0.2,0,0.3c0.3-0.1,0.9-0.5,1.8-1.1c0.9-0.6,2.1-1.4,3.8-2.4c1.4-0.9,2.6-1.3,3.4-1.3c0.7,0,1.2,0.4,1.3,1&#10;&#9;&#9;&#9;&#9;c0.2,1-0.7,2.5-2,2.9c-2.1,0.7-5.8,3.3-6.2,3.6c-1.2,1.8-2.1,2.7-2.8,2.7c-1.2,0-1.4-2.1-1.5-3.5c0-0.3,0-0.7-0.1-0.8&#10;&#9;&#9;&#9;&#9;c-0.4-1.4-0.9-2.2-1.5-2.2c-0.3,0-0.6,0.1-1,0.4c-2,1.5-2.5,3.1-1.8,9.6c0.2,2.1,1.1,3.1,2.7,3.1c1.4,0,3-0.8,4.2-1.3&#10;&#9;&#9;&#9;&#9;c0.8-0.4,1.2-0.5,1.5-0.5c0.7,0,2.8,0.7,2.8,1.5c0,0.2-0.1,0.5-0.7,0.6c-0.4,0.1-0.9,0.1-1.6,0.1c-4.1,0-9.1,3.8-10.6,7&#10;&#9;&#9;&#9;&#9;C460.4,164.9,459.6,165.6,458.7,165.6L458.7,165.6z" style="fill: rgb(234, 104, 71);"/>
			<path class="st2" d="M468.2,110c1.6,0,2,2.2,4,6.3c3.7,7.7-3.2,27.2-3.2,27.2c0,0.4,0,0.7,0.2,0.7c0.5,0,1.9-1.1,5.9-3.6&#10;&#9;&#9;&#9;&#9;c1.5-0.9,2.5-1.3,3.2-1.3c1.9,0,0.9,2.8-0.8,3.3c-2.3,0.7-6.4,3.7-6.4,3.7c-1.2,1.9-2,2.6-2.6,2.6c-1.2,0-1.1-3.4-1.3-4&#10;&#9;&#9;&#9;&#9;c-0.2-0.7-0.7-2.4-1.8-2.4c-0.3,0-0.7,0.1-1.2,0.5c-2,1.6-2.6,3.2-1.9,9.9c0.3,2.6,1.5,3.4,3,3.4c2.3,0,5.1-1.8,5.7-1.8&#10;&#9;&#9;&#9;&#9;c1.1,0,4.7,1.7,0.6,1.7c-4.1,0-9.3,3.7-10.9,7.2c-0.8,1.6-1.5,2-2.1,2c-0.7,0-1.1-0.6-1.1-0.6s0.1,0.1,0.1,0.1&#10;&#9;&#9;&#9;&#9;c0,0-0.5-0.6-4.9-5.4c-6-6.5-6-10.7-6-12.4c0-1.7,2.2-25.1,12.9-32.2C464.6,111.6,466.9,110,468.2,110 M468.2,109.3L468.2,109.3&#10;&#9;&#9;&#9;&#9;c-1.5,0-3.5,1.3-7.9,4.3l-1,0.7c-4.6,3.1-8.2,9.3-10.7,18.5c-1.8,6.8-2.4,13.1-2.4,14.2c0,1.7,0,6.1,6.2,12.8&#10;&#9;&#9;&#9;&#9;c3.6,3.9,4.6,4.9,4.8,5.2l0,0c0.1,0.1,0.7,0.9,1.7,0.9c1,0,1.9-0.8,2.7-2.4c1.5-3.2,6.4-6.8,10.3-6.8c0.7,0,1.3-0.1,1.7-0.2&#10;&#9;&#9;&#9;&#9;c0.8-0.2,0.9-0.7,0.9-1c0-1.2-2.5-1.9-3.2-1.9c-0.4,0-0.8,0.2-1.6,0.6c-1.1,0.5-2.8,1.3-4.1,1.3c-1,0-2.1-0.3-2.4-2.8&#10;&#9;&#9;&#9;&#9;c-0.7-6.7-0.1-7.9,1.7-9.3c0.3-0.2,0.6-0.4,0.8-0.4c0.3,0,0.8,0.2,1.2,1.9c0,0.1,0.1,0.4,0.1,0.7c0.1,1.5,0.3,3.8,1.8,3.8&#10;&#9;&#9;&#9;&#9;c0.9,0,1.8-0.9,3.1-2.8c0.6-0.4,4.1-2.9,6.1-3.6c1.4-0.4,2.5-2,2.3-3.3c-0.1-0.6-0.6-1.3-1.7-1.3c-0.9,0-2.1,0.5-3.6,1.3&#10;&#9;&#9;&#9;&#9;c-1.7,1-3,1.8-3.9,2.4c-0.4,0.3-0.8,0.5-1.1,0.7c1.1-3.2,6.5-19.9,3-27.2c-0.5-1-0.9-1.9-1.2-2.7&#10;&#9;&#9;&#9;&#9;C470.5,110.8,469.9,109.3,468.2,109.3L468.2,109.3z" style="fill: rgb(93, 85, 111);"/>
		</g>
		<path class="st4" d="M487.2,113.1c-0.5-0.4-1.2-0.6-1,0.3c0.2,0.6,0.4,1.3,0.6,2.2l-1.4,0.3c-10.6,5.7-1.1,14.7-1.1,14.7l-2.1,2.6&#10;&#9;&#9;&#9;c1.8-1.1,4.9-2.3,4.9-2.3l0.1-2.1l2.4-0.4c-0.1,1.3,0.1,2.4,0.2,2.9c0,0,0.3,2.4,1.7-0.3c1.4-2.8,6.8-8.8,6.1-10.7&#10;&#9;&#9;&#9;C497.4,119.6,491.8,116.5,487.2,113.1z" style="fill: rgb(19, 14, 61);"/>
		<path class="st11" d="M487.5,115.9L487,116c0,0-1.2,0.3-1.3,0.3c-2.8,1.5-4.4,3.4-4.7,5.6c0,0.3,0,0.5,0,0.8&#10;&#9;&#9;&#9;c0,3.9,3.8,7.5,3.8,7.5l0.3,0.3c0,0-0.7,0.8-1,1.2c1.1-0.5,2.1-1,2.6-1.2c0-0.4,0.1-2.2,0.1-2.2l3.3-0.6l0,0.6c0,0.2,0,0.5,0,0.7&#10;&#9;&#9;&#9;c0,0.9,0.1,1.7,0.2,2.1c0,0.2,0.1,0.4,0.2,0.5c0.1-0.1,0.3-0.3,0.6-1c0.5-1,1.5-2.5,2.6-4c1.5-2.1,3.5-4.9,3.5-6.1&#10;&#9;&#9;&#9;c0-0.1,0-0.1,0-0.2c-0.3-0.3-1.6-1.1-2.8-1.9c-2.1-1.3-4.9-3.1-7.4-5c-0.1-0.1-0.1-0.1-0.2-0.1&#10;&#9;&#9;&#9;C486.8,113.6,487.5,115.9,487.5,115.9z" style="fill: rgb(255, 198, 0);"/>
		<path class="st12" d="M600.9,216.5l0.4-0.6c0,0,1-1.6,1.1-1.7c1.4-4.7,1-8.5-1.1-11.2c-0.2-0.3-0.5-0.6-0.8-0.9&#10;&#9;&#9;&#9;c-4.3-4.3-12.3-4.1-12.3-4.1l-0.7,0c0,0-0.2-1.6-0.2-2.3c-0.6,1.7-1.3,3.3-1.6,4.1c0.5,0.5,2.3,2.5,2.3,2.5l-2.9,4.3l-0.6-0.7&#10;&#9;&#9;&#9;c-0.2-0.3-0.5-0.5-0.7-0.8c-1-1-1.9-1.7-2.5-2.1c-0.2-0.2-0.6-0.3-0.8-0.4c0,0.2,0,0.7,0.4,1.7c0.6,1.7,1,4.4,1.5,7.2&#10;&#9;&#9;&#9;c0.6,3.9,1.5,9.2,2.8,10.5c0.1,0.1,0.2,0.1,0.3,0.2c0.6,0,2.9-0.5,5.1-1c3.7-0.8,8.7-2,13.5-2.7c0.1,0,0.2-0.1,0.3-0.1&#10;&#9;&#9;&#9;C604.2,218.2,600.9,216.5,600.9,216.5z" style="fill: rgb(255, 198, 0); stroke: rgb(35, 31, 32);"/>
		<path class="st11" d="M558.2,139c0,0-3.1,0.2-5.1,1.5c-1.9,1.3-2.4,0.3-3.6-1.4c-1.2-1.7-2.8-4.9-5.5-4.5&#10;&#9;&#9;&#9;c-2.7,0.3-1.3,8.8,0.2,10.4l-4.3,2.3c0,0-1.9,1.5-0.3,3.2c1.7,1.7,2,2.1,2,2.1s1.1,1.3,4.5,0.3c0,0-0.8,5.1,0.2,5.1&#10;&#9;&#9;&#9;c0,0,1.7-7.8,5.2-9.5c3.5-1.7,6.7-1.3,6.7-1.3s-0.6-2-3.4-2.7C554.9,144.5,558.3,139.8,558.2,139z" style="fill: rgb(255, 198, 0);"/>
		<path class="st12" d="M591.2,179.7l1.2-0.3c0,0,0.5-0.3,0.5-1.6c0-0.8-0.4-2-0.7-2.8c-0.2-0.5,0-0.9,0.4-0.8&#10;&#9;&#9;&#9;c0.9,0.1,2.2,0.3,2.4,0.7c0.3,0.5,0-1.1,0.6-1.4c0.6-0.3,12.4,0.7,13.7-0.4c1.4-1.1-0.1-4.3-4.6-3.7c-4.5,0.6-6.8,1.5-8.2,2.3&#10;&#9;&#9;&#9;c-1.4,0.8-1.4,0.8-1.4,0.8l-0.6,0.9l-2-0.9c0,0-1.9-0.2-2,0.5c-0.1,0.7-0.1,3.1,0.6,4C592.3,177.9,591.4,179.7,591.2,179.7z" style="fill: rgb(255, 198, 0); stroke: rgb(35, 31, 32);"/>
		<path class="st12" d="M440.2,143.6c0,0-3.6,4.4-1.3,9.8l-5.8,3c0,0-0.2,3.3,8.1,5.1c0,0,4.1,6.5,6.3,7.3c0,0,3.9-5.1,2.3-9.2&#10;&#9;&#9;&#9;l3.8-0.9c0,0-3-3.9-5-3.9c0,0,2.4-7.4,1.3-10.2c0,0-4.7,1.1-6.1,3.1C443.9,147.6,440.9,143.2,440.2,143.6z" style="fill: rgb(255, 198, 0); stroke: rgb(35, 31, 32);"/>
		<path class="st11" d="M493.1,130.5c0,0-3.1,3.4-3.1,4.2c0,0,0.6,4,1.2,4.4c0,0,2.6,0,3.1-0.4c0,0-0.3,0.8-0.5,1.2l1.8-1.1&#10;&#9;&#9;&#9;l-1.1-1.3c0,0-1,0.7-1.9,0.6C492.7,138.1,493.8,130.4,493.1,130.5z" style="fill: rgb(255, 198, 0);"/>
		<path class="st11" d="M496,128.4c0,0-0.5,3.6-0.7,5.1c0,0-3.8,0.9,0.6,3.6c0,0,0.5,2.8-0.1,3.7l2-1.6l1.6,0.6l-0.2-2.8l1.4-1.1&#10;&#9;&#9;&#9;c0,0,0.7-0.6-0.2-0.9c-1-0.3-2.5-1.5-2.5-1.5S496.2,128.6,496,128.4z" style="fill: rgb(255, 198, 0);"/>
		<path class="st11" d="M505.5,139.3c0.2-1.1,0.6-4.6-0.6-7.2c0,0-1.3,0.5-0.9,3.3c0.3,2.5,0.8,3.7,1,4.2c0.1,0.2,0.3,0.2,0.3,0.2&#10;&#9;&#9;&#9;S505.5,139.6,505.5,139.3z" style="fill: rgb(255, 198, 0);"/>
		<path class="st11" d="M511.3,115.2c0,0-0.4,6.7,0.2,10.9c0.6,4.2-1.1,7.8-1.1,7.8s-0.6,0.1-1-1.3c-0.4-1.5-1.2-1.5-0.3-4.7&#10;&#9;&#9;&#9;c0.9-3.2,0-3.1,0-3.8c0-0.7,1.2-1.6,1.3-2.2c0.1-0.6-0.5-3.8,0-4.5C511,116.6,511.3,115.4,511.3,115.2z" style="fill: rgb(255, 198, 0);"/>
		<path class="st11" d="M511,143.4c0.3,1.3-0.3,2.6-0.6,2.7c0,0-0.1,0-0.1,0.1c-0.1,0-0.2,0-0.3,0c-0.7,0-1.2-0.8-1.2-1.7&#10;&#9;&#9;&#9;c0,0,0-0.1,0-0.1c-0.1-1.5,0.3-2.8,0.5-4.2c0-0.1,0-0.1,0-0.2c0.1-1.3,0.2-2.5,0.6-3.8c0,0,0-0.1,0-0.1c0,0,0,0.1,0,0.1&#10;&#9;&#9;&#9;c0.3,0.6,0.3,1.2,0.4,2c0,0.1,0,0.1,0,0.2c0,0.2,0,0.4,0,0.5c0,0,0,0.1,0,0.1C510.7,140.4,511,143.4,511,143.4z" style="fill: rgb(255, 198, 0);"/>
		<path class="st11" d="M519.3,132.1c0,0-3.4,10.3-2.6,14.8c0,0,1.7-6.5,2.5-7.5c0.7-1,0.2-2.3,0.1-2.7&#10;&#9;&#9;&#9;C519.2,136.3,520.1,130.3,519.3,132.1z" style="fill: rgb(255, 198, 0);"/>
		<path class="st11" d="M528.3,109.4c0,1.6-0.2,3.2-0.4,4.8c-0.2,1.7-0.2,3.3-0.4,4.9c-0.1,0.8-0.5,1.6-0.7,2.5&#10;&#9;&#9;&#9;c-0.2,0.7-0.3,1.4-0.5,2.1c-0.5,1.3-1.1,2.6-1.3,4c-0.1,0.7-0.1,1.4-0.2,2c-0.2,0.9-0.5,1.8-0.6,2.7c-0.1,1-0.2,1.9-0.2,2.9&#10;&#9;&#9;&#9;c-0.6-0.3-0.5-2.4-0.4-2.7c0-1.4,0.6-2.8,0.7-4.2c0.1-0.8-0.1-1.4-0.2-2.2c-0.1-1.4,0-2.9,0.1-4.3c0-0.7,0.1-1.4,0.2-2&#10;&#9;&#9;&#9;c0.1-0.7,0.4-1.3,0.5-2c0.2-2,0.3-4.1,0.9-6c0.5-1.6,1-3.1,1.9-4.1c0-0.1,0.3-0.2,0.2-0.1C528.2,107.7,528.3,108.6,528.3,109.4z" style="fill: rgb(255, 198, 0);"/>
		<path class="st11" d="M528.9,142.3c-0.6,0-1,0.9-1.2,1.4c-0.2,0.3-0.3,0.7-0.4,1c-0.1,0.3-0.3,0.6-0.3,1c-0.1,0.7-0.1,1.7,0.1,2.4&#10;&#9;&#9;&#9;c0.1,0.4,0.3,0.9,0.3,1.3c0,0.3-0.1,0.7-0.2,1.1c1.1-0.7,0.2-2.8,0.7-3.9c0.5-0.9,0.9-1.7,1.3-2.7c0.2-0.4,0.5-1.8-0.4-1.6" style="fill: rgb(255, 198, 0);"/>
		<path class="st11" d="M532.2,132.6c-0.1-0.2-0.6-0.7-1.2,0.1c-0.4,0.5-0.5,1.2-0.6,1.7c-0.1,0.7,0,1.4,0,2.2c0,0.7-0.1,1.3-0.2,2&#10;&#9;&#9;&#9;c0.4-1.1,1.2-2.1,1.7-3.2c0.4-0.8,0.5-1.5,0.5-2.4C532.3,132.9,532.3,132.8,532.2,132.6z" style="fill: rgb(255, 198, 0);"/>
		<path class="st11" d="M550.2,101.6c0,0,0.3-2-0.1-2.5c-0.4-0.4-2.4-0.5-4,1.5c-1.7,2-6.6,12.7-6.7,14c-0.1,1.3-2,5.9-2,5.9&#10;&#9;&#9;&#9;s-0.2,2.4-0.4,3.2s-1,3,0.1,2.1c1-0.9,6.8-10.4,7.1-11.5C544.5,113.2,550.4,103.2,550.2,101.6z" style="fill: rgb(255, 198, 0);"/>
		<path class="st11" d="M503.7,192.3c0,0-1.8-4.6-2.5-5.1c-0.8-0.5-2.4-3-4.1-2.5c-1.7,0.4-2.2,5.3-2.2,5.8c0,0-4.2,1.9-4.2,3.1&#10;&#9;&#9;&#9;c-0.1,1.2,1.6,2.8,1.6,2.8s-0.9,9.7,1.5,11.4c2.5,1.8,4.8,0.8,5.9,0c1-0.8,5.4-5.3,5.5-5.8c0,0,2.4,0.8,3.7-0.1c0,0,0.3-2,0.1-3.4&#10;&#9;&#9;&#9;c0,0-1.5-1.5-2.5-1.8c-0.9-0.3-1.3-2.3,0.2-2.8c1.4-0.5,1.4-0.5,1.4-0.5l-0.8-1.7C507.3,191.7,504.9,191.2,503.7,192.3z" style="fill: rgb(255, 198, 0);"/>
		<path class="st11" d="M575.9,206.1c0,0-4.4,3.5-6.9,5.6c-3.6,3.2-9,16-2.9,15.7c0,0,2.9,1,4.9-5.4c0,0,5.6-0.4,5.7-2.2&#10;&#9;&#9;&#9;c0.2-1.7-1.4-3-2.2-3.3C573.9,216.4,565.7,219,575.9,206.1z" style="fill: rgb(255, 198, 0);"/>
		<path class="st11" d="M558.3,134.9C558.3,134.9,558.3,135,558.3,134.9C558.2,135,558.2,134.9,558.3,134.9c-2.6,2.5-9.5,4.7-8.3-1&#10;&#9;&#9;&#9;c0.9-4.3,6.9-5.6,7.3-10.2c0.8,4.4,5.9,4.2,8.1,8.1C568,136.1,561.6,137.8,558.3,134.9z" style="fill: rgb(255, 198, 0);"/>
		<path class="st11" d="M498,151.5c0,0-2.9,6.3,3.6,7.8c0,0,3.1,0.6,3.8,2.5c0.7,1.9,5.4,0.4,1.4-2.2c-2.8-1.8-5.3-1-6-1.5&#10;&#9;&#9;&#9;C500.3,157.7,497.1,156.8,498,151.5z" style="fill: rgb(255, 198, 0);"/>
	</g></svg>